<?xml version="1.0" standalone="no"?>
<!DOCTYPE svg PUBLIC "-//W3C//DTD SVG 20010904//EN"
 "http://www.w3.org/TR/2001/REC-SVG-20010904/DTD/svg10.dtd">
<svg version="1.0" xmlns="http://www.w3.org/2000/svg"
 width="129.000000pt" height="129.000000pt" viewBox="0 0 129.000000 129.000000"
 preserveAspectRatio="xMidYMid meet">
<metadata>
Created by potrace 1.11, written by Peter Selinger 2001-2013
</metadata>
<g transform="translate(0.000000,129.000000) scale(0.100000,-0.100000)"
fill="#000000" stroke="none">
<path d="M987 1240 c-14 -21 -13 -25 26 -74 32 -40 58 -60 112 -84 l70 -32 17
22 c10 13 18 28 18 34 0 6 -22 34 -49 61 -35 36 -65 56 -103 68 -29 10 -58 20
-64 22 -7 2 -19 -5 -27 -17z"/>
<path d="M371 1195 c-62 -23 -105 -55 -142 -107 -19 -26 -19 -27 3 -53 l23
-26 64 30 c43 20 79 47 112 84 l48 54 -22 21 -22 20 -64 -23z"/>
<path d="M571 1183 c-76 -14 -94 -26 -139 -92 -15 -23 -15 -24 22 -57 21 -19
42 -34 47 -34 4 0 39 12 78 26 55 20 72 31 81 55 7 15 18 34 26 40 20 17 16
31 -14 55 -26 20 -30 20 -101 7z"/>
<path d="M320 1017 c-69 -34 -77 -45 -104 -135 l-15 -52 50 -40 50 -40 42 25
c23 14 54 31 69 37 20 9 30 22 34 48 4 19 13 53 21 75 15 43 18 38 -57 95 -26
18 -26 18 -90 -13z"/>
<path d="M137 994 c-29 -28 -53 -64 -65 -97 -33 -91 -34 -103 -10 -131 l23
-26 46 45 c38 35 52 59 73 121 26 77 25 96 -7 122 -11 10 -23 3 -60 -34z"/>
<path d="M570 1002 c-59 -25 -65 -31 -76 -67 -30 -105 -31 -99 35 -144 33 -23
62 -41 65 -41 4 0 119 64 133 75 2 1 4 14 18 109 4 32 1 36 -44 65 -26 17 -52
31 -57 31 -5 0 -38 -13 -74 -28z"/>
<path d="M835 1004 c-22 -14 -46 -28 -52 -32 -7 -4 -15 -39 -19 -77 l-6 -70
61 -32 60 -33 33 27 c67 56 70 62 64 132 -6 65 -9 70 -58 96 -34 19 -34 18
-83 -11z"/>
<path d="M1128 872 l-46 -37 3 -84 2 -84 50 -43 49 -43 46 39 45 39 2 82 2 81
-46 44 c-25 24 -49 44 -53 44 -4 -1 -28 -18 -54 -38z"/>
<path d="M132 757 l-42 -43 0 -81 0 -81 46 -41 46 -40 49 41 c29 24 49 50 50
62 0 12 2 49 4 83 l4 62 -47 41 c-26 22 -52 40 -57 40 -6 0 -30 -19 -53 -43z"/>
<path d="M381 765 c-29 -18 -57 -37 -61 -42 -5 -4 -10 -43 -12 -86 -5 -86 -5
-86 92 -144 l35 -22 68 42 c64 40 67 44 68 82 1 22 3 59 5 82 3 42 2 43 -56
83 -32 22 -65 40 -72 39 -7 0 -37 -16 -67 -34z"/>
<path d="M680 765 c-30 -19 -59 -36 -64 -38 -4 -1 -10 -41 -13 -88 l-4 -85 72
-38 71 -38 68 47 67 46 -3 57 c-1 31 -3 68 -3 82 -1 20 -14 32 -60 58 -33 17
-63 32 -68 32 -4 0 -33 -16 -63 -35z"/>
<path d="M19 729 c-21 -51 -18 -209 5 -244 10 -15 21 -23 25 -19 36 42 39 225
5 270 l-20 28 -15 -35z"/>
<path d="M828 503 l-67 -48 -1 -81 0 -81 66 -28 65 -28 70 48 69 47 0 79 0 79
-66 30 c-37 16 -67 30 -68 30 -1 0 -31 -21 -68 -47z"/>
<path d="M253 497 c-23 -18 -45 -38 -48 -46 -7 -19 13 -120 30 -146 7 -11 32
-31 57 -44 l44 -23 47 28 47 29 -4 60 c-2 33 -5 67 -5 76 -1 15 -15 26 -101
82 -24 15 -27 15 -67 -16z"/>
<path d="M517 486 l-68 -41 4 -71 c2 -40 7 -76 10 -81 3 -5 33 -22 66 -38 l61
-29 68 33 68 33 0 81 -1 80 -70 37 -70 37 -68 -41z"/>
<path d="M70 475 c-13 -39 -7 -76 22 -141 16 -38 63 -94 78 -94 3 0 13 14 23
32 17 29 17 35 2 103 -15 64 -21 77 -55 104 -21 17 -43 31 -49 31 -5 0 -15
-16 -21 -35z"/>
<path d="M1149 299 c-48 -36 -55 -45 -59 -85 -3 -24 -3 -48 0 -53 3 -5 23 -12
45 -15 35 -6 46 -3 82 24 28 21 44 41 48 63 4 18 9 40 11 49 4 12 -6 23 -34
37 l-40 20 -53 -40z"/>
<path d="M393 244 c-48 -29 -47 -26 -32 -91 9 -43 15 -50 54 -70 43 -21 46
-21 100 -5 52 16 55 19 56 49 1 18 2 43 3 56 1 17 -11 29 -58 55 -33 17 -65
32 -71 32 -5 -1 -29 -12 -52 -26z"/>
<path d="M669 235 c-64 -33 -66 -34 -67 -75 -1 -23 -4 -46 -7 -50 -7 -11 27
-33 76 -50 32 -12 44 -10 104 11 72 25 83 38 91 103 l6 42 -64 27 c-35 15 -65
27 -68 27 -3 -1 -35 -16 -71 -35z"/>
</g>
</svg>
