<svg width="18" height="20" fill="none" xmlns="http://www.w3.org/2000/svg"><path d="M9 14.13A5.323 5.323 0 1 0 9 3.482 5.323 5.323 0 0 0 9 14.13z" fill="#fff"/><path d="M15.254 2.59A8.787 8.787 0 0 0 9 0C6.637 0 4.416.92 2.745 2.59a8.788 8.788 0 0 0-2.59 6.255 8.849 8.849 0 0 0 6.962 8.644L9 20l1.883-2.51a8.849 8.849 0 0 0 6.962-8.645c0-2.362-.92-4.584-2.59-6.254zM9 2.31a6.504 6.504 0 0 1 6.497 6.496A6.504 6.504 0 0 1 9 15.303a6.504 6.504 0 0 1-6.497-6.497A6.504 6.504 0 0 1 9 2.31z" fill="#fff"/></svg>