<svg width="16" height="16" fill="none" xmlns="http://www.w3.org/2000/svg"><path d="M3.64 16V5.488H.372V16h3.27zM2.024 4.047c.493 0 .95-.176 1.336-.563.352-.351.563-.808.563-1.336 0-.492-.211-.949-.563-1.336C2.973.462 2.516.25 2.023.25 1.496.25 1.04.46.687.813a1.836 1.836 0 0 0-.562 1.335c0 .528.176.985.563 1.336.351.387.808.563 1.335.563zM15.875 16v-5.766c0-1.617-.246-2.812-.703-3.586-.633-.949-1.688-1.441-3.2-1.441-.773 0-1.406.211-1.968.563-.527.316-.914.703-1.125 1.16h-.035V5.488h-3.13V16H8.95v-5.203c0-.809.106-1.442.352-1.863.281-.563.808-.844 1.582-.844.738 0 1.23.316 1.512.95.14.386.21.983.21 1.827V16h3.27z" fill="#fff"/></svg>