<svg width="27" height="27" fill="none" xmlns="http://www.w3.org/2000/svg"><g clip-path="url(#clip0)"><path d="M14.859 10.013a.396.396 0 0 0 .396-.396V5.894c0-.734-.597-1.33-1.33-1.33h-.729c-.468 0-.907.25-1.145.652l-1.152 1.945a1.332 1.332 0 0 0 1.694 1.89v4.72c0 .733.597 1.33 1.331 1.33s1.331-.597 1.331-1.33v-2.569a.396.396 0 0 0-.793 0v2.568a.539.539 0 0 1-1.076 0V8.076a.396.396 0 0 0-.737-.202l-.142.24a.539.539 0 0 1-.926-.55l1.152-1.944a.54.54 0 0 1 .463-.264h.728c.297 0 .538.242.538.538v3.723c0 .219.178.396.397.396z" fill="red"/><path d="M21.33 9.832c0-4.317-3.512-7.83-7.83-7.83-4.317 0-7.83 3.513-7.83 7.83a.396.396 0 0 0 .793 0A7.045 7.045 0 0 1 13.5 2.795a7.045 7.045 0 0 1 7.037 7.037A7.045 7.045 0 0 1 13.5 16.87a7.05 7.05 0 0 1-4.447-1.582 7.06 7.06 0 0 1-2.431-3.96.396.396 0 1 0-.775.168A7.856 7.856 0 0 0 8.552 15.9a7.845 7.845 0 0 0 4.948 1.762c4.318 0 7.83-3.512 7.83-7.83z" fill="#fff"/><path d="M20.966 21.03a.396.396 0 1 0-.749.261l.996 2.86-2.718-.285a.397.397 0 0 0-.318.11l-1.953 1.91-2.172-6.237a9.772 9.772 0 0 0 5-1.706l.644 1.85c.199.499.896.22.748-.261l-.726-2.089a9.817 9.817 0 0 0 3.614-7.61C23.332 4.41 18.922 0 13.5 0 8.08 0 3.668 4.41 3.668 9.832a9.817 9.817 0 0 0 3.615 7.611L4.834 24.48c-.09.233.116.562.416.525l3.152-.33 2.267 2.216c.174.183.555.133.651-.153l2.18-6.263 2.18 6.263a.4.4 0 0 0 .652.153l2.266-2.216 3.153.33c.262.033.51-.24.415-.525l-1.2-3.448zM4.461 9.832c0-4.984 4.055-9.04 9.04-9.04 4.984 0 9.039 4.056 9.039 9.04 0 4.985-4.055 9.04-9.04 9.04-4.984 0-9.04-4.055-9.04-9.04zm6.316 16.055l-1.954-1.91a.397.397 0 0 0-.318-.111l-2.717.285 2.16-6.208a9.772 9.772 0 0 0 5 1.706l-2.171 6.238z" fill="#fff"/></g><defs><clipPath id="clip0"><path fill="#fff" d="M0 0H27V27H0z"/></clipPath></defs></svg>