<svg width="18" height="18" fill="none" xmlns="http://www.w3.org/2000/svg"><g clip-path="url(#clip0)"><path d="M18 3.731a7.693 7.693 0 0 1-2.126.583 3.67 3.67 0 0 0 1.623-2.04c-.713.426-1.5.726-2.34.894A3.689 3.689 0 0 0 8.774 5.69c0 .293.025.574.085.842a10.445 10.445 0 0 1-7.606-3.86 3.715 3.715 0 0 0-.505 1.865c0 1.278.658 2.41 1.64 3.067A3.644 3.644 0 0 1 .72 7.15v.04a3.707 3.707 0 0 0 2.957 3.627 3.68 3.68 0 0 1-.968.121c-.236 0-.475-.013-.699-.063a3.725 3.725 0 0 0 3.449 2.57A7.414 7.414 0 0 1 .883 15.02c-.302 0-.593-.014-.883-.051a10.389 10.389 0 0 0 5.661 1.656c6.79 0 10.503-5.625 10.503-10.5 0-.164-.006-.321-.014-.478A7.362 7.362 0 0 0 18 3.731z" fill="#fff"/></g><defs><clipPath id="clip0"><path fill="#fff" d="M0 0H18V18H0z"/></clipPath></defs></svg>